<svg width="92" height="32" viewBox="0 0 92 32" fill="none" xmlns="http://www.w3.org/2000/svg">
<g clip-path="url(#clip0_1_172)">
<path d="M1.52843e-05 4C1.52843e-05 1.79 1.75002 0 3.90002 0H88.1C90.25 0 92 1.79 92 4V28C92 30.21 90.25 32 88.1 32H3.90002C3.38128 31.9935 2.86891 31.8848 2.39217 31.6803C1.91543 31.4757 1.48365 31.1793 1.12149 30.8078C0.759338 30.4364 0.473897 29.9972 0.281472 29.5155C0.0890469 29.0337 -0.00659252 28.5187 1.52843e-05 28V4Z" fill="#1374EF"/>
<path fill-rule="evenodd" clip-rule="evenodd" d="M32 32V0H33V32H32Z" fill="#1269D3"/>
<path fill-rule="evenodd" clip-rule="evenodd" d="M16 10L15.59 10.76L10.39 20.29L10 21H22L21.61 20.29L16.42 10.76L16 10ZM67.61 20.59H66.26V11.32H67.61V20.59ZM41.35 20.59V11.75H44.63C47.33 11.75 48.9 13.36 48.9 16.15C48.9 18.95 47.34 20.59 44.63 20.59H41.35ZM44.47 12.93H42.76V19.4H44.47C46.37 19.4 47.47 18.22 47.47 16.16C47.47 14.12 46.35 12.93 44.47 12.93V12.93ZM53.52 19.63C54.34 19.63 54.9 19.34 55.15 18.8H56.45C56.16 19.98 55.05 20.71 53.49 20.71C51.52 20.71 50.32 19.4 50.32 17.27C50.32 15.16 51.55 13.8 53.48 13.8C55.38 13.8 56.54 15.07 56.54 17.16V17.61H51.7V17.67C51.74 18.87 52.44 19.64 53.52 19.64V19.63ZM55.16 16.66C55.13 15.58 54.47 14.88 53.47 14.88C52.47 14.88 51.77 15.58 51.7 16.66H55.16ZM61.72 13.82C61.2847 13.8092 60.8546 13.917 60.4758 14.1319C60.0971 14.3468 59.784 14.6607 59.57 15.04H59.47V13.94H58.17V22.8H59.52V19.58H59.62C59.98 20.28 60.76 20.7 61.73 20.7C63.46 20.7 64.56 19.36 64.56 17.26C64.56 15.15 63.46 13.82 61.72 13.82V13.82ZM61.33 19.57C60.2 19.57 59.49 18.68 59.49 17.26C59.49 15.83 60.2 14.94 61.34 14.94C62.49 14.94 63.17 15.81 63.17 17.26C63.17 18.71 62.49 19.57 61.33 19.57V19.57ZM72.53 20.71C74.54 20.71 75.77 19.41 75.77 17.26C75.77 15.11 74.53 13.8 72.54 13.8C70.54 13.8 69.3 15.11 69.3 17.26C69.3 19.41 70.53 20.71 72.54 20.71H72.53ZM72.53 19.59C71.36 19.59 70.7 18.74 70.7 17.26C70.7 15.78 71.36 14.92 72.54 14.92C73.71 14.92 74.38 15.78 74.38 17.26C74.38 18.74 73.71 19.59 72.54 19.59H72.53ZM80.44 20.89C79.86 22.49 79.21 23 77.81 23C77.71 23 77.38 22.99 77.25 22.97V21.89C77.36 21.91 77.57 21.92 77.69 21.92C78.34 21.92 78.7 21.65 78.93 20.95L79.03 20.6L76.55 13.93H78.03L79.75 19.26H79.85L81.56 13.93H83L80.44 20.89Z" fill="white"/>
</g>
<defs>
<clipPath id="clip0_1_172">
<rect width="92" height="32" fill="white"/>
</clipPath>
</defs>
</svg>
